# xmcd
#
# Track frame offsets:
#	150
#	13966
#	32374
#	48639
#	65794
#	82725
#	96886
#	113398
#	129576
#	142284
#	157379
#	170664
#	171522
#	172331
#	173317
#	174504
#	175451
#	176334
#	177253
#
# Disc length: 2370 seconds
#
# Revision: 1
# Processed by: cddbd v1.5.2PL0 Copyright (c) Steve Scherf et al.
# Submitted via: audiograbber 1.83.01
#
DISCID=0c094013
DTITLE=Various Artist - CDX 604
DYEAR=2014
DGENRE=Country
TTITLE0=The Railers - Kinda Dig The Feeling
TTITLE1=Josh Turner - Lay Low (Radio Edit)
TTITLE2=Brad Paisley - Perfect Storm (Edit)
TTITLE3=Trisha Yearwood ft. Kelly Clarkson - Prizefighter (Radio Edit)
TTITLE4=Dierks Bentley - Say You Do
TTITLE5=Kelsea Ballerini - Love Me Like You Mean It
TTITLE6=Mike Ryan - Dancing All Around It
TTITLE7=Crab Apple Lane - Hit The Ground Runnin'
TTITLE8=Will Corey - Scattered, Smothered, Covered
TTITLE9=Andy Ross - What We Do For Fun Around Here (Single Version)
TTITLE10=LoFi - When You're Over Me
TTITLE11=Sarah Dunn Band - Home Town Country (Liner)
TTITLE12=Sarah Dunn Band - Kickin' Country (Liner)
TTITLE13=Sarah Dunn Band - More of the Country You Love (Liner)
TTITLE14=Sarah Dunn Band - Our New Single (Liner)
TTITLE15=Sarah Dunn Band - Super Country Greatest Hits (Liner)
TTITLE16=Sarah Dunn Band - The Best In Country Music (Liner)
TTITLE17=Sarah Dunn Band - Today's Best Country (Liner)
TTITLE18=Sarah Dunn Band - Hot Country Music (Liner)
EXTD=
EXTT0=
EXTT1=
EXTT2=
EXTT3=
EXTT4=
EXTT5=
EXTT6=
EXTT7=
EXTT8=
EXTT9=
EXTT10=
EXTT11=
EXTT12=
EXTT13=
EXTT14=
EXTT15=
EXTT16=
EXTT17=
EXTT18=
PLAYORDER=
